<?xml version="1.0" encoding="iso-8859-1"?>
<!-- Generator: Adobe Illustrator 19.0.0, SVG Export Plug-In . SVG Version: 6.00 Build 0)  -->
<svg version="1.1" id="Layer_1" xmlns="http://www.w3.org/2000/svg" xmlns:xlink="http://www.w3.org/1999/xlink" x="0px" y="0px"
	 viewBox="0 0 512 512" style="enable-background:new 0 0 512 512;" xml:space="preserve">
<g>
	<g>
		<path d="M437.019,74.982C388.667,26.628,324.381,0,256,0C187.62,0,123.333,26.628,74.98,74.982C26.628,123.333,0,187.619,0,256
			s26.628,132.667,74.98,181.019C123.333,485.372,187.62,512,256,512c68.381,0,132.667-26.628,181.019-74.981
			C485.372,388.667,512,324.381,512,256S485.372,123.333,437.019,74.982z M256,491.602c-129.911,0-235.602-105.69-235.602-235.602
			S126.089,20.398,256,20.398S491.602,126.089,491.602,256S385.911,491.602,256,491.602z"/>
	</g>
</g>
<g>
	<g>
		<path d="M356.939,113.307c-3.734-1.616-8.071-0.856-11.033,1.933L220.303,233.366V120.371c0-5.632-4.566-10.199-10.199-10.199
			h-54.056c-5.633,0-10.199,4.567-10.199,10.199v271.258c0,5.632,4.566,10.199,10.199,10.199h54.056
			c5.633,0,10.199-4.567,10.199-10.199V278.634l125.602,118.125c1.93,1.814,4.441,2.77,6.99,2.77c1.366,0,2.742-0.274,4.045-0.837
			c3.735-1.614,6.152-5.292,6.152-9.362V122.669C363.092,118.6,360.674,114.921,356.939,113.307z M199.904,381.429h-33.657V130.57
			h33.657V381.429z M342.693,365.736L226.011,256l116.682-109.737V365.736z"/>
	</g>
</g>
<g>
	<g>
		<path d="M410.058,394.698c-3.996-3.97-10.452-3.95-14.425,0.046c-37.229,37.468-86.819,58.101-139.633,58.101
			c-5.633,0-10.199,4.567-10.199,10.199c0,5.632,4.566,10.199,10.199,10.199c58.287,0,113.016-22.772,154.104-64.12
			C414.074,405.127,414.053,398.669,410.058,394.698z"/>
	</g>
</g>
<g>
	<g>
		<path d="M440.181,351.218c-4.87-2.836-11.112-1.185-13.946,3.681c-1.417,2.434-2.902,4.862-4.413,7.218
			c-3.041,4.741-1.664,11.05,3.078,14.091c1.705,1.093,3.612,1.616,5.497,1.616c3.359,0,6.647-1.657,8.595-4.694
			c1.67-2.602,3.308-5.283,4.871-7.968C446.698,360.297,445.048,354.053,440.181,351.218z"/>
	</g>
</g>
<g>
</g>
<g>
</g>
<g>
</g>
<g>
</g>
<g>
</g>
<g>
</g>
<g>
</g>
<g>
</g>
<g>
</g>
<g>
</g>
<g>
</g>
<g>
</g>
<g>
</g>
<g>
</g>
<g>
</g>
</svg>
