<?xml version="1.0" encoding="UTF-8"?>
<svg width="105px" height="89px" viewBox="0 0 105 89" version="1.1" xmlns="http://www.w3.org/2000/svg" xmlns:xlink="http://www.w3.org/1999/xlink">
    <title>5E30D1E4-8B35-474E-B791-96A0C5621601</title>
    <g id="Page-1" stroke="none" stroke-width="1" fill="none" fill-rule="evenodd">
        <g id="Animal" transform="translate(-562.000000, -613.000000)" fill="#414042" fill-rule="nonzero">
            <g id="animal-icons" transform="translate(256.000000, 158.100000)">
                <g id="bird" transform="translate(306.800000, 455.657730)">
                    <path d="M50.1,87.3422703 L52.9,79.1422703 C60.6,81.6422703 69.9,82.8422703 81,82.8422703 C86.2,82.8422703 91.8,82.5422703 97.9,82.0422703 L103.3,81.5422703 L46.3,21.8422703 C43.5,18.8422703 41.4,15.0422703 40.2,10.6422703 L40.2,10.5422703 C38.6,4.74227026 33.5,0.442270262 27.5,0.0422702617 C23.5,-0.257729738 19.6,1.04227026 16.6,3.84227026 C13.9,6.34227026 12.2,9.94227026 12,13.6422703 L0,22.4422703 L15.4,23.6422703 C16.2,24.5422703 17.1,25.3422703 18.1,26.0422703 C20,27.3422703 21.1,29.3422703 21.2,31.5422703 C22.1,49.2422703 27.1,61.8422703 36.7,70.2422703 C37.7,71.1422703 38.8,71.9422703 39.9,72.7422703 L35.4,85.5422703 L40.3,87.2422703 L44.5,75.4422703 C45.7,76.0422703 46.9,76.6422703 48.2,77.1422703 L45.1,85.6422703 L50.1,87.3422703 Z M40,66.3422703 C31.5,58.9422703 27,47.5422703 26.3,31.3422703 C26.1,27.5422703 24.2,24.0422703 21,21.8422703 C18.6,20.1422703 17.1,17.3422703 17.1,14.3422703 C17.1,11.7422703 18.1,9.44227026 20,7.64227026 C21.7,6.04227026 23.9,5.24227026 26.2,5.24227026 C26.4,5.24227026 26.7,5.24227026 26.9,5.24227026 C30.7,5.54227026 34,8.24227026 35,12.0422703 L35,12.0422703 C36.4,17.2422703 38.9,21.8422703 42.3,25.4422703 L91.8,77.2422703 C66.9,78.8422703 50.3,75.3422703 40,66.3422703 Z" id="XMLID_132_"></path>
                </g>
            </g>
        </g>
    </g>
</svg>