<?xml version="1.0" encoding="UTF-8"?>
<svg width="104px" height="97px" viewBox="0 0 104 97" version="1.1" xmlns="http://www.w3.org/2000/svg" xmlns:xlink="http://www.w3.org/1999/xlink">
    <title>2A5B1A7C-10E2-4985-8B77-0E28A140EB7A</title>
    <g id="Page-1" stroke="none" stroke-width="1" fill="none" fill-rule="evenodd">
        <g id="Animal" transform="translate(-1138.000000, -396.000000)" fill="#414042" fill-rule="nonzero">
            <g id="animal-icons" transform="translate(256.000000, 158.100000)">
                <g id="camel" transform="translate(882.891632, 238.600000)">
                    <path d="M26.4083679,0 L21.5083679,0 C18.0083679,0 15.2083679,2.8 15.2083679,6.4 C15.2083679,7 14.7083679,7.5 14.1083679,7.5 L8.10836795,7.5 C3.70836795,7.5 0.108367948,10.9 0.0083679484,15.2 C-0.0916320516,17.4 0.708367948,19.4 2.20836795,21 C3.70836795,22.6 5.70836795,23.4 7.90836795,23.4 L14.1083679,23.4 C14.7083679,23.4 15.2083679,23.9 15.2083679,24.5 L15.2083679,48.8 C15.2083679,55.9 19.1083679,62.4 25.4083679,65.8 C26.6083679,66.4 27.3083679,67.6 27.3083679,68.8 L27.3083679,96.3 L41.5083679,96.3 L41.5083679,71.4 C41.5083679,69.5 43.0083679,68 44.9083679,68 L73.6083679,68 C76.1083679,73.7 80.8083679,76.9 84.3083679,78.5 L84.3083679,96.2 L98.5083679,96.2 L98.5083679,61.2 C99.2083679,59.1 102.308368,49.1 102.908368,45.2 C103.308368,41.9 102.308368,38.7 100.008368,36.1 C97.4083679,33.1 93.4083679,31.3 89.3083679,31.3 L85.2083679,31.3 C84.8083679,31.3 84.5083679,31.1 84.3083679,30.8 L80.1083679,23.8 C79.0083679,21.9 77.0083679,20.8 74.8083679,20.8 C74.8083679,20.8 74.7083679,20.8 74.7083679,20.8 C72.5083679,20.8 70.5083679,21.9 69.4083679,23.7 L64.9083679,30.8 C64.7083679,31.1 64.3083679,31.3 64.0083679,31.3 L63.4083679,31.3 C63.0083679,31.3 62.7083679,31.1 62.5083679,30.8 L58.3083679,23.8 C57.2083679,21.9 55.2083679,20.8 53.0083679,20.8 C53.0083679,20.8 53.0083679,20.8 52.9083679,20.8 C50.7083679,20.8 48.7083679,21.9 47.6083679,23.7 L43.1083679,30.8 C42.9083679,31.1 42.5083679,31.3 42.2083679,31.3 C41.6083679,31.3 41.1083679,30.8 41.1083679,30.2 L41.1083679,14.2 C40.7083679,6.4 34.3083679,0 26.4083679,0 Z M41.8083679,36.6 C44.0083679,36.6 46.0083679,35.5 47.1083679,33.7 L51.6083679,26.6 C51.9083679,26.2 52.3083679,26.1 52.5083679,26.1 C52.7083679,26.1 53.2083679,26.2 53.4083679,26.6 L57.6083679,33.6 C58.7083679,35.5 60.8083679,36.6 63.0083679,36.6 L63.6083679,36.6 C65.8083679,36.6 67.8083679,35.5 68.9083679,33.7 L73.4083679,26.6 C73.7083679,26.1 74.1083679,26.1 74.3083679,26.1 C74.5083679,26.1 75.0083679,26.2 75.2083679,26.6 L79.4083679,33.6 C80.5083679,35.5 82.6083679,36.6 84.8083679,36.6 L88.9083679,36.6 C91.4083679,36.6 94.0083679,37.8 95.6083679,39.6 C96.5083679,40.6 97.5083679,42.3 97.2083679,44.5 C96.8083679,47.7 94.0083679,56.8 92.9083679,60 L92.8083679,60.4 L92.8083679,91 L89.0083679,91 L89.0083679,75 L87.3083679,74.3 C84.4083679,73.2 79.2083679,70.4 77.3083679,64.5 L76.7083679,62.7 L44.3083679,62.7 C39.6083679,62.7 35.7083679,66.6 35.7083679,71.3 L35.7083679,90.9 L31.9083679,90.9 L31.9083679,68.7 C31.9083679,65.5 30.1083679,62.6 27.2083679,61.1 C22.6083679,58.7 19.8083679,53.9 19.8083679,48.8 L19.8083679,24.5 C19.8083679,21 16.9083679,18.1 13.4083679,18.1 L7.20836795,18.1 C6.50836795,18.1 5.80836795,17.8 5.30836795,17.3 C4.80836795,16.8 4.50836795,16.1 4.50836795,15.3 C4.50836795,13.9 5.90836795,12.7 7.40836795,12.7 L13.4083679,12.7 C16.8083679,12.7 19.7083679,9.9 19.8083679,6.5 C19.8083679,5.9 20.2083679,5.2 20.9083679,5.2 L25.8083679,5.2 C30.8083679,5.2 34.9083679,9.3 34.9083679,14.3 L34.9083679,30.3 C35.5083679,33.8 38.3083679,36.6 41.8083679,36.6 Z" id="XMLID_67_"></path>
                </g>
            </g>
        </g>
    </g>
</svg>