<?xml version="1.0" encoding="UTF-8"?>
<svg width="125px" height="95px" viewBox="0 0 125 95" version="1.1" xmlns="http://www.w3.org/2000/svg" xmlns:xlink="http://www.w3.org/1999/xlink">
    <title>801BD108-7125-40B8-B8B3-EC0493D553F4</title>
    <g id="Page-1" stroke="none" stroke-width="1" fill="none" fill-rule="evenodd">
        <g id="Animal" transform="translate(-256.000000, -175.000000)" fill="#414042" fill-rule="nonzero">
            <g id="animal-icons" transform="translate(256.000000, 158.100000)">
                <g id="cat" transform="translate(0.000000, 17.072312)">
                    <path d="M0.8,49.4276878 C0.3,49.4276878 0,49.9276878 0,50.3276878 C0,50.8276878 0.4,51.1276878 0.9,51.1276878 C0.9,51.1276878 0.9,51.1276878 1,51.1276878 L11.7,50.3276878 C11.7,51.0276878 11.8,51.5276878 11.8,51.6276878 L11.9,52.6276878 L12.6,53.3276878 C12.7,53.4276878 13.9,54.6276878 15.9,56.1276878 L3.3,61.1276878 C2.9,61.3276878 2.6,61.8276878 2.8,62.2276878 C2.9,62.5276878 3.3,62.7276878 3.6,62.7276878 C3.7,62.7276878 3.8,62.7276878 3.9,62.6276878 L17.4,57.2276878 C21.9,60.4276878 29.2,64.6276878 37.7,65.3276878 L37.7,94.2276878 L54.2,94.2276878 L54.2,82.2276878 C54.2,81.6276878 54.7,81.1276878 55.3,81.1276878 L90.2,81.1276878 C90.8,81.1276878 91.3,81.6276878 91.3,82.2276878 L91.3,94.2276878 L107.9,94.2276878 L107.9,59.6276878 C107.9,56.8276878 107.4,54.2276878 106.6,51.7276878 C124.3,41.4276878 129.5,23.8276878 120.4,4.02768775 C119.6,2.32768775 118.2,1.02768775 116.5,0.427687753 C114.8,-0.172312247 112.9,-0.172312247 111.2,0.627687753 C109.5,1.42768775 108.2,2.82768775 107.6,4.52768775 C107,6.22768775 107,8.12768775 107.8,9.82768775 C114.1,23.4276878 110.9,33.7276878 98.4,40.3276878 C94.3,37.2276878 89.2,35.3276878 83.7,35.3276878 L68.1,35.3276878 C67.8,33.6276878 67.4,31.8276878 66.9,30.1276878 C70,27.4276878 75.4,21.0276878 75.5,9.32768775 L75.5,6.92768775 L73.1,6.72768775 C63.3,5.82768775 56.7,9.52768775 53.6,11.7276878 C49.8,9.62768775 45.4,8.52768775 40.3,8.52768775 C35.3,8.52768775 31,9.62768775 27.2,11.8276878 C24.3,9.62768775 17.5,5.82768775 7.6,6.62768775 L5.2,6.82768775 L5.2,9.22768775 C5.4,21.4276878 11.2,27.8276878 14.2,30.3276878 C13.2,33.7276878 12.6,37.1276878 12.3,40.2276878 L2.1,37.9276878 C1.6,37.8276878 1.2,38.1276878 1.1,38.6276878 C1,39.1276878 1.3,39.5276878 1.8,39.6276878 L12.2,41.9276878 C12,44.5276878 11.9,46.8276878 11.9,48.5276878 L0.8,49.4276878 Z M112.4,7.72768775 C112.2,7.32768775 112.2,6.82768775 112.3,6.42768775 C112.5,6.02768775 112.8,5.62768775 113.2,5.42768775 C113.6,5.22768775 114.1,5.22768775 114.5,5.32768775 C114.9,5.52768775 115.3,5.82768775 115.5,6.22768775 C123.5,23.6276878 119.5,38.0276878 104.2,47.0276878 C103.6,46.0276878 102.9,45.0276878 102.2,44.2276878 C116,36.1276878 119.6,23.3276878 112.4,7.72768775 Z M68,53.3276878 L68.7,52.6276878 L68.8,51.7276878 C68.8,51.6276878 68.9,51.1276878 68.9,50.3276878 L79.6,51.1276878 C79.6,51.1276878 79.6,51.1276878 79.7,51.1276878 C80.2,51.1276878 80.5,50.8276878 80.6,50.3276878 C80.6,49.8276878 80.3,49.4276878 79.8,49.4276878 L69,48.6276878 C69,46.9276878 69,44.6276878 68.9,42.0276878 L75,40.6276878 L83.7,40.6276878 C94.2,40.6276878 102.7,49.1276878 102.7,59.6276878 L102.7,89.0276878 L96.7,89.0276878 L96.7,82.2276878 C96.7,78.7276878 93.8,75.8276878 90.3,75.8276878 L55.3,75.8276878 C51.8,75.8276878 48.9,78.7276878 48.9,82.2276878 L48.9,89.0276878 L42.9,89.0276878 L42.9,65.4276878 C51.3,64.7276878 58.6,60.5276878 63.1,57.3276878 L76.6,62.7276878 C76.7,62.7276878 76.8,62.8276878 76.9,62.8276878 C77.2,62.8276878 77.6,62.6276878 77.7,62.3276878 C77.9,61.9276878 77.7,61.3276878 77.2,61.2276878 L64.6,56.2276878 C66.7,54.6276878 67.9,53.4276878 68,53.3276878 Z M70.1,11.7276878 C69.5,18.2276878 67,22.3276878 64.9,24.6276878 C63.6,21.7276878 61.9,18.9276878 59.7,16.5276878 C59.2,15.9276878 58.7,15.4276878 58.1,14.9276878 C60.5,13.5276878 64.6,11.8276878 70.1,11.7276878 Z M40.3,13.7276878 C46.8,13.7276878 52,15.8276878 55.8,20.0276878 C61.1,25.8276878 62.9,34.6276878 63.5,41.3276878 L54.5,43.3276878 C54,43.4276878 53.7,43.9276878 53.8,44.3276878 C53.9,44.7276878 54.3,45.0276878 54.6,45.0276878 C54.7,45.0276878 54.7,45.0276878 54.8,45.0276878 L63.5,43.0276878 C63.6,45.0276878 63.6,46.7276878 63.6,48.1276878 L55,47.5276878 C54.5,47.5276878 54.1,47.8276878 54.1,48.3276878 C54.1,48.8276878 54.4,49.2276878 54.9,49.2276878 L63.6,49.8276878 C63.6,49.9276878 63.6,50.0276878 63.6,50.1276878 C62.7,50.9276878 61.1,52.2276878 59,53.7276878 L54.4,51.9276878 C54,51.7276878 53.4,51.9276878 53.3,52.4276878 C53.1,52.8276878 53.3,53.4276878 53.8,53.5276878 L57.2,54.9276878 C52.8,57.6276878 46.8,60.3276878 40.3,60.3276878 C33.8,60.3276878 27.8,57.6276878 23.4,54.9276878 L26.8,53.5276878 C27.2,53.3276878 27.5,52.8276878 27.3,52.4276878 C27.1,52.0276878 26.6,51.7276878 26.2,51.9276878 L21.6,53.7276878 C19.5,52.3276878 17.9,50.9276878 17,50.2276878 C17,50.1276878 17,50.0276878 17,49.9276878 L25.6,49.3276878 C26.1,49.3276878 26.4,48.8276878 26.4,48.4276878 C26.4,47.9276878 25.9,47.6276878 25.5,47.6276878 L16.9,48.2276878 C16.9,46.9276878 17,45.1276878 17.1,43.2276878 L25.6,45.1276878 C25.7,45.1276878 25.7,45.1276878 25.8,45.1276878 C26.2,45.1276878 26.6,44.8276878 26.6,44.4276878 C26.7,43.9276878 26.4,43.5276878 25.9,43.4276878 L17.2,41.4276878 C17.9,34.5276878 20,25.5276878 25.4,19.7276878 C29.3,15.7276878 34.1,13.7276878 40.3,13.7276878 Z M10.5,11.7276878 C16.2,11.7276878 20.4,13.6276878 22.8,15.1276878 C22.4,15.4276878 22.1,15.8276878 21.7,16.2276878 C19.3,18.8276878 17.4,21.8276878 16,25.1276878 C13.9,22.8276878 11.2,18.6276878 10.5,11.7276878 Z" id="XMLID_92_"></path>
                    <path d="M40.3,39.9276878 C32.9,39.9276878 34.1,45.3276878 40.3,48.6276878 C46.5,45.3276878 47.8,39.9276878 40.3,39.9276878 Z" id="XMLID_54_"></path>
                </g>
            </g>
        </g>
    </g>
</svg>