<?xml version="1.0" encoding="UTF-8"?>
<svg width="169px" height="34px" viewBox="0 0 169 34" version="1.1" xmlns="http://www.w3.org/2000/svg" xmlns:xlink="http://www.w3.org/1999/xlink">
    <title>23832406-E567-4313-BAAD-ECEF2CD3FF9E</title>
    <g id="Page-1" stroke="none" stroke-width="1" fill="none" fill-rule="evenodd">
        <g id="Animal" transform="translate(-1399.000000, -427.000000)" fill="#414042" fill-rule="nonzero">
            <g id="animal-icons" transform="translate(256.000000, 158.100000)">
                <g id="crocodile" transform="translate(1143.000000, 269.600000)">
                    <path d="M168.8,32.8 L142.1,22.2 L138.7,12.3 L130.6,17.7 L124.6,15.3 L121.4,5.9 L113.7,11 L109.2,9.2 C108.8,9.1 108.4,8.9 108.1,8.8 L105.1,0 L97.2,5.3 C87.8,2.8 78.1,1.5 68.3,1.5 C53.9,1.5 39.9,4.2 26.5,9.6 L4.6,18.5 C1.8,19.6 0,22.4 0,25.4 C0,29.5 3.3,32.8 7.4,32.8 L168.8,32.8 Z M5.2,25.4 C5.2,24.5 5.7,23.7 6.6,23.3 L28.5,14.4 C41.2,9.2 54.6,6.6 68.3,6.6 C81.7,6.6 94.8,9.1 107.3,14 L141.3,27.5 L70.2,27.5 C71.3,24.2 74.4,21.8 78.1,21.8 L78.1,16.7 C71.5,16.7 66,21.4 64.8,27.6 L38.1,27.6 C39.2,24.3 42.3,21.9 46,21.9 L46,16.7 C39.4,16.7 33.9,21.4 32.7,27.6 L7.3,27.6 C6.2,27.6 5.2,26.6 5.2,25.4 Z" id="XMLID_106_"></path>
                </g>
            </g>
        </g>
    </g>
</svg>