<?xml version="1.0" encoding="UTF-8"?>
<svg width="108px" height="108px" viewBox="0 0 108 108" version="1.1" xmlns="http://www.w3.org/2000/svg" xmlns:xlink="http://www.w3.org/1999/xlink">
    <title>A8B9968F-342B-4A63-81E7-2CEB6E18D686</title>
    <g id="Page-1" stroke="none" stroke-width="1" fill="none" fill-rule="evenodd">
        <g id="Animal" transform="translate(-577.000000, -158.000000)" fill="#414042" fill-rule="nonzero">
            <g id="animal-icons" transform="translate(256.000000, 158.100000)">
                <g id="dog" transform="translate(321.196478, 0.000000)">
                    <path d="M22.1035222,54.2 C16.5035222,54.2 17.5035222,58.2 22.1035222,60.7 C26.7035222,58.2 27.6035222,54.2 22.1035222,54.2 Z" id="XMLID_68_"></path>
                    <path d="M0.103522175,56.6 L0.103522175,57.1 L0.303522175,57.5 C1.10352217,59.2 6.60352217,70.9 14.7035222,75.9 L14.7035222,107.8 L31.2035222,107.8 L31.2035222,95.8 C31.2035222,95.2 31.7035222,94.7 32.3035222,94.7 L67.2035222,94.7 C67.8035222,94.7 68.3035222,95.2 68.3035222,95.8 L68.3035222,107.8 L84.8035222,107.8 L84.8035222,73.2 C84.8035222,70.7 84.4035222,68.2 83.7035222,65.9 C84.5035222,66 85.2035222,66 86.0035222,66 C93.0035222,66 99.1035222,63.4 102.903522,58.7 C106.403522,54.3 111.003522,44 101.703522,25.1 L99.5035222,20.7 L97.1035222,25 C95.3035222,28.2 91.7035222,30.3 87.9035222,32.5 C81.3035222,36.3 73.4035222,40.9 73.5035222,52.8 C69.8035222,50.4 65.3035222,49.1 60.6035222,49.1 L44.0035222,49.1 C43.8035222,45.8 43.1035222,41.9 41.8035222,38.1 C41.8035222,35.3 41.6035222,21.8 37.4035222,6.9 L35.5035222,0 L32.5035222,6.6 C29.3035222,13.6 27.4035222,20.5 26.6035222,24.2 C25.2035222,23.9 23.6035222,23.8 22.1035222,23.8 C20.5035222,23.8 19.0035222,24 17.6035222,24.3 C16.7035222,20.6 14.9035222,13.6 11.7035222,6.6 L8.70352217,0 L6.80352217,6.9 C2.70352217,21.8 2.70352217,35.3 2.80352217,38.1 C-0.596477825,46.6 0.00352217467,56 0.103522175,56.6 Z M90.5035222,37 C93.4035222,35.3 96.4035222,33.6 98.8035222,31.3 C103.103522,41.7 103.203522,50.2 98.9035222,55.5 C95.3035222,60 88.5035222,61.9 81.2035222,60.4 C80.6035222,59.5 80.0035222,58.7 79.4035222,57.9 C76.7035222,44.9 83.1035222,41.2 90.5035222,37 Z M43.8035222,57.5 L44.0035222,57.1 L44.0035222,56.7 C44.0035222,56.5 44.1035222,55.6 44.1035222,54.2 L60.5035222,54.2 C71.0035222,54.2 79.5035222,62.7 79.5035222,73.2 L79.5035222,102.6 L73.5035222,102.6 L73.5035222,95.8 C73.5035222,92.3 70.6035222,89.4 67.1035222,89.4 L32.2035222,89.4 C28.7035222,89.4 25.8035222,92.3 25.8035222,95.8 L25.8035222,102.6 L19.8035222,102.6 L19.8035222,78.1 C20.5035222,78.2 21.2035222,78.3 22.0035222,78.3 C34.1035222,78.2 42.8035222,59.6 43.8035222,57.5 Z M34.3035222,16.2 C35.2035222,20.9 35.8035222,25.3 36.1035222,28.8 C34.8035222,27.5 33.3035222,26.5 31.6035222,25.6 C32.0035222,23.6 32.9035222,20.2 34.3035222,16.2 Z M9.80352217,16.3 C11.2035222,20.3 12.0035222,23.8 12.5035222,25.8 C10.9035222,26.6 9.50352217,27.7 8.10352217,29 C8.40352217,25.5 8.90352217,21.1 9.80352217,16.3 Z M11.5035222,33.1 C14.2035222,30.2 17.7035222,28.8 22.1035222,28.8 C26.8035222,28.8 30.5035222,30.3 33.2035222,33.3 C39.5035222,40.3 39.0035222,53.2 38.9035222,55.7 C36.5035222,60.9 29.3035222,73 22.1035222,73 C14.9035222,73 7.70352217,61 5.30352217,55.8 C5.20352217,53.2 5.00352217,40 11.5035222,33.1 Z" id="XMLID_109_"></path>
                </g>
            </g>
        </g>
    </g>
</svg>