<?xml version="1.0" encoding="UTF-8"?>
<svg width="140px" height="78px" viewBox="0 0 140 78" version="1.1" xmlns="http://www.w3.org/2000/svg" xmlns:xlink="http://www.w3.org/1999/xlink">
    <title>FEBA5BE2-CA79-49C6-9E15-BA4B96761081</title>
    <g id="Page-1" stroke="none" stroke-width="1" fill="none" fill-rule="evenodd">
        <g id="Animal" transform="translate(-545.000000, -413.000000)" fill="#414042" fill-rule="nonzero">
            <g id="animal-icons" transform="translate(256.000000, 158.100000)">
                <g id="dragonfly" transform="translate(289.820519, 255.800000)">
                    <path d="M0.379480764,49.9 C1.67948076,54.3 5.67948076,57.2 10.0794808,57.2 C10.9794808,57.2 11.9794808,57.1 12.8794808,56.8 L61.9794808,42.7 L61.9794808,69.7 C61.9794808,73.8 64.6794808,77 68.0794808,77 L70.5794808,77 C73.9794808,77 76.6794808,73.8 76.6794808,69.7 L76.6794808,42.7 L125.779481,56.8 C126.679481,57.1 127.679481,57.2 128.579481,57.2 C132.979481,57.2 136.979481,54.3 138.279481,49.9 C139.779481,44.6 136.679481,39 131.379481,37.5 L103.179481,29.4 L129.479481,20.6 C131.979481,19.8 134.079481,18 135.279481,15.6 C136.479481,13.2 136.679481,10.5 135.779481,7.9 C134.979481,5.4 133.179481,3.3 130.779481,2.1 C128.379481,0.9 125.679481,0.7 123.079481,1.6 L76.0794808,17.3 C75.7794808,16.6 75.4794808,16 74.9794808,15.4 C76.7794808,13.8 77.9794808,11.4 77.9794808,8.8 C77.9794808,4 74.0794808,0 69.1794808,0 C64.3794808,0 60.3794808,3.9 60.3794808,8.8 C60.3794808,11.4 61.5794808,13.8 63.3794808,15.4 C62.9794808,16 62.5794808,16.6 62.2794808,17.3 L15.2794808,1.6 C12.7794808,0.8 9.97948076,0.9 7.57948076,2.1 C5.17948076,3.3 3.37948076,5.4 2.57948076,7.9 C1.77948076,10.4 1.87948076,13.2 3.07948076,15.6 C4.27948076,18 6.37948076,19.8 8.87948076,20.6 L35.1794808,29.4 L6.97948076,37.5 C1.97948076,39 -1.12051924,44.6 0.379480764,49.9 Z M129.879481,42.5 C132.479481,43.2 133.879481,45.9 133.179481,48.5 C132.479481,51.1 129.779481,52.5 127.179481,51.8 L78.1794808,37.7 L94.2794808,32.3 L129.879481,42.5 Z M124.779481,6.5 C125.979481,6.1 127.279481,6.2 128.479481,6.8 C129.679481,7.4 130.479481,8.4 130.879481,9.6 C131.679481,12.1 130.379481,14.9 127.879481,15.7 L94.3794808,26.9 L77.9794808,22.2 L124.779481,6.5 Z M85.4794808,29.8 L76.6794808,32.7 L76.6794808,29.4 C76.6794808,28.6 76.5794808,27.8 76.3794808,27.1 L85.4794808,29.8 Z M71.3794808,69.6 C71.3794808,70.9 70.6794808,71.7 70.4794808,71.7 L67.9794808,71.7 C67.7794808,71.7 67.0794808,70.9 67.0794808,69.6 L67.0794808,29.4 C67.0794808,28.1 67.7794808,27.3 67.9794808,27.3 L70.4794808,27.3 C70.6794808,27.3 71.3794808,28.1 71.3794808,29.4 L71.3794808,69.6 Z M69.2794808,22.1 C68.0794808,22.1 67.1794808,21.1 67.1794808,20 C67.1794808,18.9 68.1794808,17.9 69.2794808,17.9 C70.3794808,17.9 71.3794808,18.9 71.3794808,20 C71.3794808,21.1 70.4794808,22.1 69.2794808,22.1 Z M69.2794808,5.2 C71.1794808,5.2 72.7794808,6.8 72.7794808,8.7 C72.7794808,10.6 71.1794808,12.2 69.2794808,12.2 C67.3794808,12.2 65.7794808,10.6 65.7794808,8.7 C65.7794808,6.8 67.3794808,5.2 69.2794808,5.2 Z M61.9794808,29.4 L61.9794808,32.7 L53.1794808,29.8 L62.2794808,27.2 C62.0794808,27.8 61.9794808,28.6 61.9794808,29.4 Z M10.7794808,15.7 C8.27948076,14.9 6.87948076,12.1 7.77948076,9.6 C8.17948076,8.4 9.07948076,7.4 10.1794808,6.8 C11.3794808,6.2 12.6794808,6.1 13.8794808,6.5 L60.6794808,22.1 L44.2794808,26.8 L10.7794808,15.7 Z M44.1794808,32.3 L60.2794808,37.7 L11.2794808,51.8 C8.67948076,52.5 6.07948076,51.1 5.27948076,48.5 C4.57948076,45.9 5.97948076,43.3 8.57948076,42.5 L44.1794808,32.3 Z" id="XMLID_75_"></path>
                </g>
            </g>
        </g>
    </g>
</svg>