<?xml version="1.0" encoding="UTF-8"?>
<svg width="111px" height="99px" viewBox="0 0 111 99" version="1.1" xmlns="http://www.w3.org/2000/svg" xmlns:xlink="http://www.w3.org/1999/xlink">
    <title>50AFF4A1-6A47-495D-95A1-A7FBC1E8EE55</title>
    <g id="Page-1" stroke="none" stroke-width="1" fill="none" fill-rule="evenodd">
        <g id="Animal" transform="translate(-1131.000000, -821.000000)" fill="#414042" fill-rule="nonzero">
            <g id="animal-icons" transform="translate(256.000000, 158.100000)">
                <g id="duck" transform="translate(875.600000, 663.000000)">
                    <path d="M24.8,0 C19.3,0 14.9,4.4 14.9,9.9 L14.9,10.3 L0,13.8 L14.9,18.6 L14.9,44.7 C14.9,62.6 27.2,77.7 43.8,82 L43.8,98.7 L49,98.7 L49,83 C50.4,83.2 51.9,83.2 53.3,83.2 C54,83.2 54.6,83.2 55.3,83.1 L55.3,98.6 L60.5,98.6 L60.5,82.4 C77.9,79.1 91.3,64 91.8,45.7 C96.4,40.9 111.6,24.4 110.1,15.2 C109.7,12.9 108.4,11 106.2,9.9 C103.7,8.7 101.2,8.7 98.9,9.9 C90.9,14.3 87.8,34.1 86.9,41.9 L34.7,41.9 L34.7,9.7 C34.7,4.5 30.2,0 24.8,0 Z M101.4,14.7 C101.7,14.5 102,14.4 102.5,14.4 C102.9,14.4 103.3,14.5 103.9,14.8 C104.7,15.2 104.9,15.7 105,16.2 C105.7,20.3 99.4,29.3 93,36.9 C94.6,27.2 97.6,16.8 101.4,14.7 Z M79,47.4 C73.1,57.6 62.2,64 50.3,64 L50.3,69.2 C65.2,69.2 78.6,60.7 85,47.4 L86.6,47.4 C85.3,64.5 70.9,78 53.4,78 C35.1,78 20.1,63.1 20.1,44.7 L20.1,9.9 C20.1,7.3 22.2,5.2 24.8,5.2 C27.4,5.2 29.5,7.3 29.5,9.9 L29.5,47.4 L79,47.4 L79,47.4 Z" id="XMLID_188_"></path>
                </g>
            </g>
        </g>
    </g>
</svg>