<?xml version="1.0" encoding="UTF-8"?>
<svg width="122px" height="97px" viewBox="0 0 122 97" version="1.1" xmlns="http://www.w3.org/2000/svg" xmlns:xlink="http://www.w3.org/1999/xlink">
    <title>22C0FE90-3321-4561-9D70-BA67876EBF06</title>
    <g id="Page-1" stroke="none" stroke-width="1" fill="none" fill-rule="evenodd">
        <g id="Animal" transform="translate(-1417.000000, -823.000000)" fill="#414042" fill-rule="nonzero">
            <g id="animal-icons" transform="translate(256.000000, 158.100000)">
                <g id="elephant" transform="translate(1161.200000, 665.559851)">
                    <path d="M71.1,6.4401494 C69,6.4401494 67,6.7401494 65.1,7.3401494 C59.6,2.2401494 52.4,-0.359850603 44.8,0.0401493966 C38.3,0.440149397 32.3,3.2401494 27.8,7.4401494 C25.7,6.7401494 23.5,6.3401494 21.2,6.3401494 C9.5,6.3401494 0,15.8401494 0,27.5401494 C0,39.2401494 9.5,48.7401494 21.2,48.7401494 C23.7,48.7401494 26.1,48.3401494 28.4,47.4401494 C30.8,49.5401494 33.6,51.3401494 36.7,52.5401494 L36.7,52.7401494 C36.7,56.8401494 33.4,60.2401494 29.2,60.2401494 L22,60.2401494 C17.3,60.2401494 13.4,63.9401494 13.2,68.5401494 C13.1,70.8401494 14,73.0401494 15.6,74.7401494 C17.2,76.4401494 19.4,77.3401494 21.7,77.3401494 L29.1,77.3401494 C34,77.3401494 38.6,75.8401494 42.5,73.3401494 L42.5,96.2401494 L60.4,96.2401494 L60.4,83.0401494 C60.4,82.1401494 61.1,81.4401494 62,81.4401494 L101.4,81.4401494 C102.3,81.4401494 103,82.1401494 103,83.0401494 L103,96.2401494 L120.9,96.2401494 L120.9,57.5401494 C120.9,42.6401494 108.8,30.5401494 93.9,30.5401494 L91.9,30.5401494 C92,29.5401494 92.1,28.6401494 92.1,27.6401494 C92.4,15.9401494 82.8,6.4401494 71.1,6.4401494 Z M71.1,11.6401494 C79.9,11.6401494 87.1,18.8401494 87.1,27.6401494 C87.1,36.4401494 79.9,43.6401494 71.1,43.6401494 C70.2,43.6401494 69.3,43.5401494 68.4,43.4401494 C71.8,38.8401494 73.7,33.2401494 73.7,27.3401494 C73.7,21.8401494 72,16.4401494 68.9,11.9401494 C69.7,11.7401494 70.4,11.6401494 71.1,11.6401494 Z M21.3,43.6401494 C12.5,43.6401494 5.3,36.4401494 5.3,27.6401494 C5.3,18.8401494 12.5,11.6401494 21.3,11.6401494 C22.2,11.6401494 23.2,11.7401494 24.1,11.8401494 C21.5,15.6401494 19.8,20.0401494 19.4,24.8401494 C18.8,31.5401494 20.8,38.0401494 24.6,43.2401494 C23.5,43.4401494 22.4,43.6401494 21.3,43.6401494 Z M29.4,72.1401494 L22,72.1401494 C21.1,72.1401494 20.3,71.7401494 19.6,71.1401494 C19,70.5401494 18.6,69.6401494 18.7,68.7401494 C18.8,66.9401494 20.3,65.5401494 22.2,65.5401494 L29.4,65.5401494 C36.4,65.5401494 42.1,59.8401494 42.1,52.8401494 L42.1,52.1401494 C42.1,50.2401494 40.9,48.5401494 39.2,47.9401494 C29.8,44.5401494 23.9,35.3401494 24.7,25.3401494 C25.6,14.5401494 34.4,5.9401494 45.2,5.2401494 C51.4,4.8401494 57.2,6.9401494 61.7,11.1401494 C66.2,15.3401494 68.6,21.0401494 68.6,27.1401494 C68.6,37.2401494 61.8,45.9401494 52,48.4401494 C50,48.9401494 48.7,50.7401494 48.7,52.7401494 C48.6,63.4401494 40,72.1401494 29.4,72.1401494 Z M94.2,35.7401494 C106.2,35.7401494 116,45.5401494 116,57.5401494 L116,91.0401494 L108.5,91.0401494 L108.5,83.0401494 C108.5,79.2401494 105.4,76.2401494 101.7,76.2401494 L62.3,76.2401494 C58.5,76.2401494 55.5,79.3401494 55.5,83.0401494 L55.5,91.0401494 L48,91.0401494 L48,68.7401494 C51.6,64.6401494 53.8,59.2401494 53.9,53.4401494 C57.9,52.3401494 61.5,50.3401494 64.5,47.7401494 C66.7,48.4401494 68.9,48.8401494 71.2,48.8401494 C80,48.8401494 87.6,43.4401494 90.8,35.7401494 L94.2,35.7401494 Z" id="XMLID_194_"></path>
                </g>
            </g>
        </g>
    </g>
</svg>