<?xml version="1.0" encoding="UTF-8"?>
<svg width="129px" height="65px" viewBox="0 0 129 65" version="1.1" xmlns="http://www.w3.org/2000/svg" xmlns:xlink="http://www.w3.org/1999/xlink">
    <title>7F9AE985-A59E-4B70-854A-1EA8B9BE906A</title>
    <g id="Page-1" stroke="none" stroke-width="1" fill="none" fill-rule="evenodd">
        <g id="Animal" transform="translate(-1414.000000, -199.000000)" fill="#414042" fill-rule="nonzero">
            <g id="animal-icons" transform="translate(256.000000, 158.100000)">
                <g id="fish" transform="translate(1158.500000, 41.600000)">
                    <path d="M127.8,2.3 L123.1,3.1 C114.6,4.5 107.1,9.8 102.8,17.3 C90.3,6.1 74.4,-2.84217094e-14 57.5,-2.84217094e-14 C34.8,-2.84217094e-14 13.6,11.3 1,30.2 L2.27373675e-13,31.7 L1,33.2 C13.7,52.1 34.8,63.4 57.5,63.4 C74.4,63.4 90.3,57.3 102.8,46.1 C107.1,53.5 114.6,58.9 123.1,60.3 L127.8,61.1 L126,56.7 C122.7,48.8 121,40.4 121,31.7 C121,23 122.7,14.6 126,6.7 L127.8,2.3 Z M119.3,53.8 C113.4,51.5 108.5,46.7 106,40.8 L104.5,37.2 L101.7,39.9 C89.9,51.6 74.2,58.1 57.5,58.1 C50.1,58.1 42.9,56.8 36.1,54.3 C43.6,45.2 41.5,33.2 41.4,32.7 L36.3,33.6 C36.3,33.7 38.2,44.8 31,52.2 C21.3,47.7 12.7,40.7 6.3,31.7 C18.1,15.1 37.1,5.3 57.5,5.3 C74.2,5.3 89.9,11.8 101.7,23.5 L104.5,26.2 L106,22.6 C108.5,16.6 113.4,11.9 119.3,9.6 C116.9,16.7 115.7,24.1 115.7,31.7 C115.7,39.3 116.9,46.7 119.3,53.8 Z" id="XMLID_57_"></path>
                    <circle id="XMLID_53_" cx="23.2" cy="26.7" r="3.3"></circle>
                </g>
            </g>
        </g>
    </g>
</svg>