<?xml version="1.0" encoding="UTF-8"?>
<svg width="86px" height="101px" viewBox="0 0 86 101" version="1.1" xmlns="http://www.w3.org/2000/svg" xmlns:xlink="http://www.w3.org/1999/xlink">
    <title>1AFA2E97-270D-4478-9174-B3B5021CCCE7</title>
    <g id="Page-1" stroke="none" stroke-width="1" fill="none" fill-rule="evenodd">
        <g id="Animal" transform="translate(-572.000000, -822.000000)" fill="#414042" fill-rule="nonzero">
            <g id="animal-icons" transform="translate(256.000000, 158.100000)">
                <g id="ladybug" transform="translate(316.800000, 664.100000)">
                    <path d="M0,58.2 C0,81.5 19,100.5 42.3,100.5 C65.6,100.5 84.6,81.5 84.6,58.2 C84.6,39.9 72.9,24.3 56.6,18.4 C56.3,14.9 54.8,11.8 52.5,9.5 L56.6,2.7 L52.1,0 L48.2,6.5 C46.3,5.6 44.3,5.1 42.1,5.1 C40,5.1 37.9,5.6 36.1,6.4 L32.2,0 L27.7,2.7 L31.7,9.4 C29.4,11.8 27.8,14.9 27.5,18.4 C11.6,24.3 0,39.9 0,58.2 Z M79.4,58.2 C79.4,77.8 64.1,93.9 44.9,95.2 L44.9,21.2 C64.2,22.5 79.4,38.6 79.4,58.2 Z M42.3,10.3 C46.4,10.3 49.9,13 51.1,16.8 C48.3,16.2 45.3,15.9 42.3,15.9 C39.2,15.9 36.3,16.2 33.4,16.9 C34.6,13 38.1,10.3 42.3,10.3 Z M39.7,21.2 L39.7,95.2 C20.5,93.9 5.2,77.8 5.2,58.2 C5.2,38.6 20.5,22.5 39.7,21.2 Z" id="XMLID_164_"></path>
                    <circle id="XMLID_137_" cx="28.6" cy="37.3" r="4.3"></circle>
                    <circle id="XMLID_159_" cx="14.4" cy="52.7" r="4.3"></circle>
                    <circle id="XMLID_160_" cx="30.2" cy="61.3" r="4.3"></circle>
                    <circle id="XMLID_161_" cx="21.6" cy="78.7" r="4.3"></circle>
                    <circle id="XMLID_167_" cx="56" cy="37.3" r="4.3"></circle>
                    <circle id="XMLID_168_" cx="70.3" cy="52.7" r="4.3"></circle>
                    <circle id="XMLID_169_" cx="54.5" cy="61.3" r="4.3"></circle>
                    <circle id="XMLID_170_" cx="63.1" cy="78.7" r="4.3"></circle>
                </g>
            </g>
        </g>
    </g>
</svg>