<?xml version="1.0" encoding="UTF-8"?>
<svg width="121px" height="95px" viewBox="0 0 121 95" version="1.1" xmlns="http://www.w3.org/2000/svg" xmlns:xlink="http://www.w3.org/1999/xlink">
    <title>29D2424D-4A1C-4140-8FC4-7FFCA89CDB17</title>
    <g id="Page-1" stroke="none" stroke-width="1" fill="none" fill-rule="evenodd">
        <g id="Animal" transform="translate(-267.000000, -397.000000)" fill="#414042" fill-rule="nonzero">
            <g id="animal-icons" transform="translate(256.000000, 158.100000)">
                <g id="lion" transform="translate(11.000000, 239.672312)">
                    <path d="M37.4,35.4276878 C31.6,35.4276878 32.6,39.6276878 37.4,42.2276878 C42.3,39.6276878 43.2,35.4276878 37.4,35.4276878 Z" id="XMLID_87_"></path>
                    <path d="M0.8,40.8276878 L-7.10542736e-15,42.0276878 L0.6,43.3276878 C3.9,50.3276878 12.1,56.1276878 20.1,61.7276878 C25.5,65.5276878 30.9,69.3276878 33.4,72.8276878 L33.4,94.2276878 L49.9,94.2276878 L49.9,82.2276878 C49.9,81.6276878 50.4,81.1276878 51,81.1276878 L85.9,81.1276878 C86.5,81.1276878 87,81.6276878 87,82.2276878 L87,94.2276878 L103.5,94.2276878 L103.5,59.6276878 C103.5,56.8276878 103,54.2276878 102.2,51.7276878 C119.9,41.4276878 125.1,23.8276878 116,4.02768775 C115.2,2.32768775 113.8,1.02768775 112.1,0.427687753 C110.4,-0.172312247 108.5,-0.172312247 106.8,0.627687753 C105.1,1.42768775 103.8,2.82768775 103.2,4.52768775 C102.6,6.22768775 102.6,8.12768775 103.4,9.82768775 C109.7,23.4276878 106.5,33.7276878 94,40.3276878 C89.9,37.2276878 84.8,35.3276878 79.3,35.3276878 L70.9,35.3276878 C69,31.7276878 66.5,26.8276878 64.4,21.6276878 C64.2,21.1276878 64,20.6276878 63.8,20.1276878 C64.6,17.8276878 65.2,15.0276878 65.3,11.6276878 L65.3,9.22768775 L62.9,9.02768775 C60.2,8.82768775 57.8,9.02768775 55.8,9.42768775 C50.7,5.22768775 44.5,3.02768775 37.5,3.02768775 C30.5,3.02768775 24.2,5.22768775 19.2,9.52768775 C17.1,9.02768775 14.6,8.82768775 11.9,9.12768775 L9.5,9.32768775 L9.5,11.7276878 C9.5,15.2276878 10.2,18.1276878 11.1,20.5276878 C10.9,20.9276878 10.7,21.3276878 10.6,21.7276878 C6.5,31.7276878 0.9,40.7276878 0.8,40.8276878 Z M108.2,7.62768775 C108,7.22768775 108,6.72768775 108.1,6.32768775 C108.3,5.92768775 108.6,5.52768775 109,5.32768775 C109.4,5.12768775 109.9,5.12768775 110.3,5.22768775 C110.7,5.42768775 111.1,5.72768775 111.3,6.12768775 C119.3,23.5276878 115.3,37.9276878 100,46.9276878 C99.4,45.9276878 98.7,45.0276878 98,44.1276878 C111.8,36.1276878 115.4,23.2276878 108.2,7.62768775 Z M74.2,40.8276878 C74.2,40.8276878 74.1,40.7276878 74,40.5276878 L79.4,40.5276878 C89.9,40.5276878 98.4,49.0276878 98.4,59.5276878 L98.4,88.9276878 L92.4,88.9276878 L92.4,82.1276878 C92.4,78.6276878 89.5,75.7276878 86,75.7276878 L51.1,75.7276878 C47.6,75.7276878 44.7,78.6276878 44.7,82.1276878 L44.7,88.9276878 L38.7,88.9276878 L38.7,76.0276878 L40.1,76.0276878 C40.3,72.0276878 47.7,66.8276878 54.8,61.7276878 C62.7,56.1276878 71,50.3276878 74.3,43.3276878 L74.9,42.0276878 L74.2,40.8276878 Z M59.9,14.1276878 C59.4,18.1276878 58,20.8276878 56.6,22.5276878 C55.4,20.0276878 53.9,17.9276878 52.2,16.1276878 C53.9,15.2276878 56.5,14.2276878 59.9,14.1276878 Z M54.5,33.2276878 C51.9,35.4276878 46.3,41.0276878 46,48.9276878 C43.1,50.1276878 40.2,50.7276878 37.5,50.7276878 C34.8,50.7276878 32,50.1276878 29,48.9276878 C28.6,41.0276878 23.2,35.4276878 20.6,33.2276878 C22.7,21.5276878 28.3,15.6276878 37.4,15.6276878 C46.8,15.7276878 52.6,21.6276878 54.5,33.2276878 Z M37.5,8.22768775 C42,8.22768775 46.2,9.32768775 49.8,11.5276878 C49,11.9276878 48.2,12.4276878 47.7,12.8276878 C44.7,11.2276878 41.3,10.4276878 37.4,10.4276878 C33.6,10.4276878 30.2,11.2276878 27.2,12.9276878 C26.6,12.5276878 25.9,12.0276878 25.1,11.6276878 C28.7,9.32768775 32.9,8.22768775 37.5,8.22768775 Z M22.8,16.3276878 C21.1,18.1276878 19.6,20.3276878 18.4,22.9276878 C17,21.2276878 15.4,18.4276878 14.9,14.2276878 C18.4,14.3276878 21.1,15.3276878 22.8,16.3276878 Z M14.3,26.1276878 C15,27.0276878 15.7,27.7276878 16.3,28.2276878 C15.8,30.0276878 15.4,31.9276878 15.1,33.9276878 L14.9,35.5276878 L16.2,36.4276878 C16.3,36.5276878 24.1,42.2276878 23.7,50.4276878 L23.6,52.1276878 L25.2,52.9276878 C29.3,54.9276878 33.4,55.9276878 37.4,55.9276878 C41.4,55.9276878 45.5,54.9276878 49.7,52.9276878 L51.3,52.1276878 L51.2,50.4276878 C50.8,42.3276878 58.6,36.5276878 58.8,36.4276878 L60.1,35.5276878 L59.9,33.9276878 C59.6,31.8276878 59.2,29.8276878 58.7,28.0276878 C59.3,27.5276878 60,26.8276878 60.6,25.9276878 C63.7,33.3276878 67.4,39.6276878 68.9,42.3276878 C65.7,47.6276878 58.6,52.6276878 51.8,57.5276878 C45.9,61.7276878 40.5,65.4276878 37.5,69.4276878 C34.5,65.4276878 29.1,61.6276878 23.2,57.5276878 C16.3,52.6276878 9.2,47.6276878 6.1,42.3276878 C7.6,39.7276878 11.2,33.4276878 14.3,26.1276878 Z" id="XMLID_119_"></path>
                </g>
            </g>
        </g>
    </g>
</svg>