<?xml version="1.0" encoding="UTF-8"?>
<svg width="89px" height="100px" viewBox="0 0 89 100" version="1.1" xmlns="http://www.w3.org/2000/svg" xmlns:xlink="http://www.w3.org/1999/xlink">
    <title>1EDB51D0-8E67-4E90-B7C9-0C9C5574321E</title>
    <g id="Page-1" stroke="none" stroke-width="1" fill="none" fill-rule="evenodd">
        <g id="Animal" transform="translate(-858.000000, -823.000000)" fill="#414042" fill-rule="nonzero">
            <g id="animal-icons" transform="translate(256.000000, 158.100000)">
                <g id="owl" transform="translate(602.600000, 665.300000)">
                    <path d="M38.9,29.6 C38.9,23.2 33.7,17.9 27.2,17.9 C20.8,17.9 15.5,23.1 15.5,29.6 C15.5,36 20.7,41.3 27.2,41.3 C33.6,41.3 38.9,36 38.9,29.6 Z M20.7,29.6 C20.7,26 23.6,23.2 27.1,23.2 C30.7,23.2 33.5,26.1 33.5,29.6 C33.5,33.2 30.6,36 27.1,36 C23.6,36.1 20.7,33.2 20.7,29.6 Z" id="XMLID_175_"></path>
                    <path d="M72.7,29.6 C72.7,23.2 67.5,17.9 61,17.9 C54.6,17.9 49.3,23.1 49.3,29.6 C49.3,36 54.5,41.3 61,41.3 C67.4,41.3 72.7,36 72.7,29.6 Z M54.5,29.6 C54.5,26 57.4,23.2 60.9,23.2 C64.5,23.2 67.3,26.1 67.3,29.6 C67.3,33.2 64.4,36 60.9,36 C57.4,36.1 54.5,33.2 54.5,29.6 Z" id="XMLID_178_"></path>
                    <path d="M88.2,0.1 L83,0 C82.8,9.4 74.2,10.1 61,10.1 C53.8,10.1 47.5,14 44.1,19.9 C40.7,14.1 34.4,10.1 27.2,10.1 C14,10.1 5.3,9.4 5.2,0 L0,0.1 C0.2,10 6.9,13.5 14.7,14.7 C10.4,18.3 7.7,23.6 7.7,29.6 C7.7,35.9 10.7,41.6 15.4,45.1 C13.5,51.1 12.5,57.7 12.5,64.4 C12.5,94.7 32.3,99.2 44.1,99.2 C55.9,99.2 75.7,94.7 75.7,64.4 C75.7,57.7 74.7,51.1 72.8,45.1 C77.5,41.5 80.5,35.9 80.5,29.6 C80.5,23.6 77.8,18.3 73.5,14.7 C81.3,13.5 88.1,10 88.2,0.1 Z M48,50.1 C48,53.6 46.6,57 44.1,59.5 C41.6,57 40.2,53.7 40.2,50.1 C40.2,46.6 41.6,43.2 44.1,40.7 C46.6,43.2 48,46.6 48,50.1 Z M12.9,29.6 C12.9,21.7 19.3,15.3 27.2,15.3 C35.1,15.3 41.5,21.7 41.5,29.6 C41.5,37.5 35.1,43.9 27.2,43.9 C19.3,43.9 12.9,37.5 12.9,29.6 Z M44.1,94.1 C26.6,94.1 17.7,84.1 17.7,64.5 C17.7,58.7 18.5,53 20.1,47.8 C22.3,48.7 24.7,49.2 27.2,49.2 C30,49.2 32.7,48.6 35.1,47.5 C35,48.4 34.9,49.3 34.9,50.2 C34.9,56.1 37.8,61.7 42.5,65.1 L44,66.2 L45.5,65.1 C50.3,61.6 53.1,56.1 53.1,50.2 C53.1,49.3 53,48.4 52.9,47.5 C55.3,48.6 58,49.2 60.8,49.2 C63.3,49.2 65.7,48.7 67.9,47.9 C69.4,53.1 70.3,58.8 70.3,64.6 C70.5,84.1 61.6,94.1 44.1,94.1 Z M75.3,29.6 C75.3,37.5 68.9,43.9 61,43.9 C53.1,43.9 46.7,37.5 46.7,29.6 C46.7,21.7 53.1,15.3 61,15.3 C68.9,15.3 75.3,21.7 75.3,29.6 Z" id="XMLID_184_"></path>
                </g>
            </g>
        </g>
    </g>
</svg>