<?xml version="1.0" encoding="UTF-8"?>
<svg width="105px" height="87px" viewBox="0 0 105 87" version="1.1" xmlns="http://www.w3.org/2000/svg" xmlns:xlink="http://www.w3.org/1999/xlink">
    <title>B7C2E847-6B38-4B88-B498-767C290AA164</title>
    <g id="Page-1" stroke="none" stroke-width="1" fill="none" fill-rule="evenodd">
        <g id="Animal" transform="translate(-850.000000, -615.000000)" fill="#414042" fill-rule="nonzero">
            <g id="animal-icons" transform="translate(256.000000, 158.100000)">
                <g id="pig" transform="translate(594.000000, 457.400000)">
                    <path d="M44.8,36.5 C44.8,30.5 38.8,25.8 31.2,25.8 C23.6,25.8 17.6,30.5 17.6,36.5 C17.6,42.5 23.6,47.2 31.2,47.2 C38.8,47.2 44.8,42.5 44.8,36.5 Z M22.8,36.5 C22.8,33.6 26.6,31.1 31.2,31.1 C35.8,31.1 39.6,33.6 39.6,36.5 C39.6,39.4 35.8,41.9 31.2,41.9 C26.6,41.9 22.8,39.4 22.8,36.5 Z" id="XMLID_135_"></path>
                    <circle id="XMLID_89_" cx="27.7" cy="36.5" r="1.6"></circle>
                    <circle id="XMLID_114_" cx="34.7" cy="36.5" r="1.6"></circle>
                    <path d="M62.3,4.9 L62.3,2.5 L59.9,2.3 C53.8,1.8 49.7,4.1 47.8,5.5 C43.3,1.9 37.7,0 31.1,0 C24.6,0 19.1,1.9 14.7,5.6 C12.9,4.2 8.7,1.7 2.4,2.3 L0,2.5 L0,4.9 C0.1,13.1 4.4,17.1 6.1,18.4 C4.8,21.9 3.8,25.8 3.2,30.2 C1.9,39.6 6.7,48.7 15.1,52.9 C19.6,55.2 24.1,56.5 28.5,56.8 L28.5,85.6 L45,85.6 L45,73.6 C45,73 45.5,72.5 46.1,72.5 L81,72.5 C81.6,72.5 82.1,73 82.1,73.6 L82.1,85.6 L98.6,85.6 L98.6,51 C98.6,45.8 96.9,40.9 94.1,36.9 C95.3,36.4 96.4,35.9 97.5,35.1 C98.7,34.2 99.6,33.1 100.2,31.9 C101.1,31.5 101.8,30.8 102.4,30 C103.8,28.1 104.4,25.4 103.9,23.1 C103.2,20.1 100.7,17.7 97.8,17 C97.1,16.9 96.4,17.3 96.2,18 C96,18.7 96.5,19.4 97.2,19.6 C99.2,20 100.9,21.7 101.3,23.7 C101.6,25 101.4,26.5 100.7,27.8 C100.1,25.5 97.9,23.2 95.7,22.9 C94.1,22.7 92.8,23.3 92.1,24.6 C91.2,26.2 91.4,28.7 92.6,30.2 C93.6,31.4 95,32.3 96.5,32.5 C96.3,32.7 96.1,32.8 95.9,33 C94.9,33.8 93.6,34.3 92.4,34.8 C88,29.9 81.5,26.8 74.4,26.8 L58.8,26.8 C58.3,23.7 57.5,20.8 56.5,18.2 C58.3,16.7 62.2,12.7 62.3,4.9 Z M94.7,28.7 C94.1,28 94,26.7 94.4,26 C94.5,25.8 94.7,25.6 95.2,25.6 C95.3,25.6 95.4,25.6 95.4,25.6 C96.7,25.8 98.2,27.6 98.3,29 C98.3,29.3 98.3,29.7 98.2,30 C98,30 97.8,30.1 97.7,30.1 C96.5,30.1 95.4,29.6 94.7,28.7 Z M5.4,7.5 C8,7.7 9.9,8.7 11,9.4 C10,10.6 9.1,12 8.3,13.5 C7.3,12.5 6,10.6 5.4,7.5 Z M17.4,48.2 C11,45 7.3,38.1 8.3,30.9 C9.9,19.2 15.2,5.1 31,5.1 C47.6,5.1 52.7,19.2 54,31 C54.8,38 51.1,44.8 44.8,48 C40,50.4 35.4,51.6 30.9,51.6 C26.7,51.7 22.1,50.6 17.4,48.2 Z M59.4,32 L74.4,32 C84.9,32 93.4,40.5 93.4,51 L93.4,80.4 L87.4,80.4 L87.4,73.6 C87.4,70.1 84.5,67.2 81,67.2 L46.1,67.2 C42.6,67.2 39.7,70 39.7,73.6 L39.7,80.4 L33.7,80.4 L33.7,56.8 C38.1,56.4 42.7,55 47.3,52.7 C55.1,48.8 59.8,40.6 59.4,32 Z M54.2,13.2 C53.4,11.8 52.5,10.4 51.5,9.2 C52.6,8.5 54.4,7.7 56.8,7.5 C56.3,10.3 55.1,12.1 54.2,13.2 Z" id="XMLID_144_"></path>
                </g>
            </g>
        </g>
    </g>
</svg>