<?xml version="1.0" encoding="UTF-8"?>
<svg width="126px" height="103px" viewBox="0 0 126 103" version="1.1" xmlns="http://www.w3.org/2000/svg" xmlns:xlink="http://www.w3.org/1999/xlink">
    <title>8956455F-8C2E-455C-BDC4-7CB8D9767FCC</title>
    <g id="Page-1" stroke="none" stroke-width="1" fill="none" fill-rule="evenodd">
        <g id="Animal" transform="translate(-843.000000, -160.000000)" fill="#414042" fill-rule="nonzero">
            <g id="animal-icons" transform="translate(256.000000, 158.100000)">
                <g id="rabbit" transform="translate(587.000000, 2.700000)">
                    <path d="M0,87.8 C0,94.2 4.8,101.8 27.5,101.8 L109.4,101.8 L109.3,100.1 C110.9,101.2 112.9,101.8 115,101.8 C120.8,101.8 125.5,97.1 125.5,91.3 C125.5,85.5 120.8,80.8 115,80.8 C112.2,80.8 109.6,81.9 107.7,83.7 C104.8,69 97,56.8 76,55.7 C61.7,54.9 50.6,60.7 43,66 L16.9,-2.84217094e-14 L14.7,5.7 C3.4,34.3 13.7,51.7 23.6,60.9 C12.7,63.7 0,77.5 0,87.8 Z M115.1,85.5 C118.3,85.5 120.8,88.1 120.8,91.2 C120.8,94.4 118.2,96.9 115.1,96.9 C111.9,96.9 109.4,94.3 109.4,91.2 C109.4,88.1 112,85.5 115.1,85.5 Z M75.9,60.4 C94.9,61.4 103.3,72 104.5,96.9 L60,96.9 C63,93.8 69.5,93.2 69.6,93.2 L72.5,93 L71.7,90.2 C71.7,90.1 70.1,84 75.2,79.6 C81,74.6 91.5,80.7 91.6,80.8 L94.1,76.7 C93.5,76.4 80.5,68.7 72.1,76 C67.1,80.3 66.5,85.7 66.7,88.9 C63,89.6 56.4,91.6 54.4,97 L40.9,97 C45.5,93.2 48.4,87.5 48.4,81.1 C48.4,77.2 47.3,73.5 45.4,70.3 C52.4,65.3 62.7,59.7 75.9,60.4 Z M17.1,13.4 L36.4,62.3 C34.7,61.5 32.8,60.9 30.8,60.6 C20.1,52.6 9.6,38.1 17.1,13.4 Z M27.5,65.1 C36.3,65.1 43.4,72.3 43.4,81 C43.4,89.8 36.2,96.9 27.5,96.9 C17.2,96.9 4.8,95.3 4.8,87.7 C4.9,78.9 18.6,65.1 27.5,65.1 Z" id="XMLID_60_"></path>
                </g>
            </g>
        </g>
    </g>
</svg>