<?xml version="1.0" encoding="UTF-8"?>
<svg width="133px" height="70px" viewBox="0 0 133 70" version="1.1" xmlns="http://www.w3.org/2000/svg" xmlns:xlink="http://www.w3.org/1999/xlink">
    <title>94AE96ED-7EA7-4603-B5C8-1717541AA15E</title>
    <g id="Page-1" stroke="none" stroke-width="1" fill="none" fill-rule="evenodd">
        <g id="Animal" transform="translate(-262.000000, -623.000000)" fill="#414042" fill-rule="nonzero">
            <g id="animal-icons" transform="translate(256.000000, 158.100000)">
                <g id="shark" transform="translate(6.900000, 465.000000)">
                    <path d="M70.1,1.3 C69.4,1.5 54.1,6.9 49.4,21.9 C30.2,23.8 12.9,30.8 1.9,41.4 L0,43.3 L1.9,45.2 C14.8,57.7 36.5,65.2 59.9,65.2 C68.1,65.2 76.2,64.3 83.7,62.5 C89.3,69.2 98.2,69.4 98.6,69.4 L102.4,69.5 L98.1,57.8 C102.2,56 106.1,54 109.6,51.7 C112.7,55.7 118.4,58.6 125,59.6 L131.7,60.6 L127.4,55.3 C124.5,51.8 123.1,48 123.1,44.1 C123.1,40.2 124.6,36.5 127.4,33 L131.7,27.7 L125,28.7 C119.1,29.6 113.9,32.1 110.6,35.4 C107.7,33.4 104.6,31.6 101.3,30.1 L107.6,16.5 L103.8,16.3 C103.3,16.3 91.7,15.6 84.4,24.2 C80.6,23.3 76.7,22.6 72.7,22.1 L73.6,0 L70.1,1.3 Z M68.2,7.9 L67.6,21.6 C65.1,21.4 62.5,21.3 59.9,21.3 C58.3,21.3 56.7,21.3 55.1,21.4 C58.1,14.3 64.2,10 68.2,7.9 Z M89.6,60.8 C90.9,60.4 92.1,60 93.3,59.6 L94.7,63.4 C93.1,62.9 91.3,62.1 89.6,60.8 Z M99.5,21.8 L96.6,28 C94.5,27.2 92.4,26.4 90.3,25.8 C93.3,23.3 96.8,22.3 99.5,21.8 Z M109.6,41.1 L111.8,42.8 L113.3,40.5 C114.6,38.5 116.9,36.8 119.7,35.6 C118.5,38.4 117.9,41.2 117.9,44.1 C117.9,47 118.5,49.9 119.7,52.6 C116.4,51.2 113.8,49.1 112.7,46.7 L111.4,43.8 L108.8,45.7 C96.5,54.6 78.6,59.8 59.8,59.8 C39,59.8 19.7,53.6 7.5,43.1 C19.7,32.6 38.9,26.4 59.8,26.4 C79.2,26.5 97.3,31.8 109.6,41.1 Z" id="XMLID_128_"></path>
                    <circle id="XMLID_88_" cx="26.2" cy="38.9" r="2.6"></circle>
                </g>
            </g>
        </g>
    </g>
</svg>