<?xml version="1.0" encoding="UTF-8"?>
<svg width="99px" height="119px" viewBox="0 0 99 119" version="1.1" xmlns="http://www.w3.org/2000/svg" xmlns:xlink="http://www.w3.org/1999/xlink">
    <title>B16876D9-3B23-4DF5-BC91-DC158C6395E3</title>
    <g id="Page-1" stroke="none" stroke-width="1" fill="none" fill-rule="evenodd">
        <g id="Animal" transform="translate(-1429.000000, -595.000000)" fill="#414042" fill-rule="nonzero">
            <g id="animal-icons" transform="translate(256.000000, 158.100000)">
                <g id="squirrel" transform="translate(1173.489472, 437.500000)">
                    <path d="M30.4105279,8.3 L25.5105279,0 L25.5105279,37.5 C25.5105279,37.5 25.4105279,37.5 25.4105279,37.5 C17.6105279,37.9 2.11052788,47.1 0.210527884,55.8 C-0.289472116,58.1 0.110527884,60.2 1.31052788,61.9 C4.11052788,65.9 10.7105279,67.3 17.1105279,68.1 L17.1105279,103.5 C11.7105279,105.2 10.0105279,111.8 9.91052788,115.6 L9.81052788,118.3 L66.8105279,118.3 L66.8105279,118.2 C76.4105279,117.8 83.4105279,114.9 88.4105279,109.5 C98.9105279,97.9 97.0105279,77.5 95.2105279,57.6 C93.8105279,42.6 92.5105279,28.4 96.5105279,19.5 L98.4105279,15.3 L93.9105279,15.8 C83.2105279,16.9 74.6105279,21.7 68.5105279,29.9 C59.3105279,42.3 57.3105279,60.4 57.5105279,74.6 C50.2105279,59.4 40.8105279,50.7 38.0105279,48.4 C37.6105279,46.5 36.9105279,44.7 35.9105279,43.1 C40.7105279,38.7 42.4105279,28.9 30.4105279,8.3 Z M30.7105279,20.3 C35.4105279,30.8 35.5105279,37.9 30.9105279,40.6 L30.7105279,40.7 L30.7105279,20.3 Z M5.51052788,59 C5.21052788,58.6 5.01052788,58.1 5.21052788,57 C6.51052788,51.2 19.2105279,43.1 25.6105279,42.7 C25.7105279,42.7 25.8105279,42.7 25.9105279,42.7 C26.4105279,42.7 26.9105279,42.8 27.4105279,42.9 L29.0105279,43.3 L30.3105279,44.6 C32.7105279,47.1 33.7105279,51.5 32.9105279,55.3 C31.6105279,61 26.7105279,64 20.0105279,63.3 C16.3105279,62.9 7.61052788,61.9 5.51052788,59 Z M72.7105279,33.2 C77.1105279,27.3 83.0105279,23.5 90.2105279,21.8 C87.5105279,31.6 88.7105279,44.6 90.0105279,58.2 C91.7105279,76.9 93.5105279,96.2 84.6105279,106.1 C80.6105279,110.4 74.8105279,112.7 66.8105279,113.1 C66.6105279,106.9 65.8105279,101.1 64.7105279,95.8 C63.8105279,91.5 57.8105279,53.3 72.7105279,33.2 Z M38.1105279,56.5 C38.1105279,56.3 38.2105279,56.2 38.2105279,56 C45.6105279,63.7 60.4105279,82.7 61.5105279,113.2 L15.5105279,113.2 C16.0105279,111.1 17.2105279,108.5 19.7105279,108.5 L22.4105279,108.5 L22.3105279,105.8 C22.2105279,102.6 23.0105279,100.1 24.9105279,98.1 C29.1105279,93.7 36.8105279,93.4 36.9105279,93.4 L36.8105279,88.2 C36.4105279,88.2 28.0105279,88.5 22.3105279,93.4 L22.3105279,68.7 C30.3105279,68.5 36.4105279,64 38.1105279,56.5 Z" id="XMLID_155_"></path>
                </g>
            </g>
        </g>
    </g>
</svg>