<?xml version="1.0" encoding="UTF-8"?>
<svg width="120px" height="95px" viewBox="0 0 120 95" version="1.1" xmlns="http://www.w3.org/2000/svg" xmlns:xlink="http://www.w3.org/1999/xlink">
    <title>31AE0674-902B-42EF-8A26-317624997B60</title>
    <g id="Page-1" stroke="none" stroke-width="1" fill="none" fill-rule="evenodd">
        <g id="Animal" transform="translate(-1130.000000, -184.000000)" fill="#414042" fill-rule="nonzero">
            <g id="animal-icons" transform="translate(256.000000, 158.100000)">
                <g id="tiger" transform="translate(874.400000, 26.272312)">
                    <path d="M35.2,39.8276878 C27.8,39.8276878 29,45.2276878 35.2,48.5276878 C41.4,45.1276878 42.6,39.8276878 35.2,39.8276878 Z" id="XMLID_64_"></path>
                    <path d="M70.3,9.22768775 L70.3,6.82768775 L67.9,6.62768775 C58.1,5.72768775 51.5,9.42768775 48.4,11.6276878 C44.6,9.52768775 40.2,8.42768775 35.1,8.42768775 C30.1,8.42768775 25.7,9.52768775 22,11.7276878 C19.1,9.52768775 12.3,5.72768775 2.4,6.62768775 L0,6.82768775 L0,9.22768775 C0.2,21.3276878 5.9,27.8276878 8.9,30.3276878 C8,33.6276878 7.3,37.2276878 6.9,41.1276878 L6.7,43.0276878 L8.4,43.8276878 C8.5,43.9276878 22.5,50.4276878 22.8,61.3276878 L22.9,63.1276878 L24.6,63.7276878 C27.3,64.6276878 29.9,65.2276878 32.5,65.4276878 L32.5,94.2276878 L49,94.2276878 L49,82.2276878 C49,81.6276878 49.5,81.1276878 50.1,81.1276878 L85,81.1276878 C85.6,81.1276878 86.1,81.6276878 86.1,82.2276878 L86.1,94.2276878 L102.6,94.2276878 L102.6,59.6276878 C102.6,56.8276878 102.1,54.2276878 101.3,51.7276878 C119,41.4276878 124.2,23.8276878 115.1,4.02768775 C114.3,2.32768775 112.9,1.02768775 111.2,0.427687753 C109.5,-0.172312247 107.6,-0.172312247 105.9,0.627687753 C102.4,2.22768775 100.9,6.42768775 102.5,9.92768775 C108.8,23.5276878 105.6,33.8276878 93.1,40.4276878 C89,37.3276878 83.9,35.4276878 78.4,35.4276878 L62.8,35.4276878 C62.5,33.6276878 62.1,31.8276878 61.6,30.1276878 C64.8,27.3276878 70.1,20.9276878 70.3,9.22768775 Z M5.4,11.6276878 C11.1,11.6276878 15.2,13.5276878 17.6,14.9276878 C14.9,17.5276878 12.6,20.8276878 10.9,24.8276878 C8.8,22.6276878 6,18.4276878 5.4,11.6276878 Z M28,59.2276878 C26.6,48.7276878 16.5,42.2276878 12.4,39.9276878 C14,27.5276878 19.3,13.6276878 35.2,13.6276878 C51.6,13.6276878 56.8,27.3276878 58.2,39.4276878 C54.1,41.7276878 43.9,48.6276878 42.5,59.1276878 C40,59.8276878 37.6,60.1276878 35.2,60.1276878 C32.8,60.2276878 30.4,59.8276878 28,59.2276878 Z M107.3,7.52768775 C106.9,6.62768775 107.3,5.62768775 108.2,5.22768775 C108.6,5.02768775 109.1,5.02768775 109.5,5.12768775 C109.9,5.32768775 110.3,5.62768775 110.5,6.02768775 C118.5,23.4276878 114.5,37.8276878 99.2,46.8276878 C98.6,45.8276878 97.9,44.9276878 97.2,44.0276878 C110.9,36.0276878 114.5,23.1276878 107.3,7.52768775 Z M62.5,61.2276878 L64.6,40.4276878 L70.2,40.4276878 L72.9,61.2276878 L75,40.4276878 L78.3,40.4276878 C79.1,40.4276878 79.8,40.5276878 80.6,40.5276878 L83.3,61.1276878 L85.3,41.7276878 C92.3,44.5276878 97.3,51.4276878 97.3,59.4276878 L97.3,88.8276878 L91.3,88.8276878 L91.3,82.0276878 C91.3,78.5276878 88.4,75.6276878 84.9,75.6276878 L50,75.6276878 C46.5,75.6276878 43.6,78.5276878 43.6,82.0276878 L43.6,88.8276878 L37.6,88.8276878 L37.6,65.2276878 C40.2,65.0276878 42.9,64.4276878 45.5,63.5276878 L47.2,62.9276878 L47.3,61.1276878 C47.4,57.5276878 49,54.3276878 51.2,51.7276878 L52.4,61.2276878 L53.7,49.0276878 C56,46.8276878 58.5,45.1276878 60.1,44.2276878 L62.5,61.2276878 Z M59.7,24.5276878 C58,20.6276878 55.7,17.3276878 52.9,14.8276878 C55.3,13.4276878 59.4,11.6276878 64.8,11.6276878 C64.3,18.1276878 61.8,22.2276878 59.7,24.5276878 Z" id="XMLID_101_"></path>
                </g>
            </g>
        </g>
    </g>
</svg>